<?xml version="1.0" encoding="UTF-8"?>
<svg width="1000px" height="1000px" viewBox="0 0 1000 1000" version="1.1" xmlns="http://www.w3.org/2000/svg" xmlns:xlink="http://www.w3.org/1999/xlink">
    <!-- Generator: Sketch 52.3 (67297) - http://www.bohemiancoding.com/sketch -->
    <title>icon</title>
    <desc>Created with Sketch.</desc>
    <g id="icon" stroke="none" stroke-width="1" fill="none" fill-rule="evenodd">
        <g fill-rule="nonzero" id="Shape">
            <path d="M628.602587,525 L949.127557,525 C977.135981,525 1000,547.864019 1000,575.872443 L1000,949.127557 C1000,977.135981 977.135981,1000 949.127557,1000 L575.872443,1000 C547.864019,1000 525,977.135981 525,949.127557 L525,628.602587 C525,617.742178 529.287004,607.453369 536.86071,599.879663 L599.879663,536.86071 C607.453369,529.287004 617.885078,525 628.602587,525 Z" fill="#FF8F00"></path>
            <path d="M475,628.602587 L475,949.127557 C475,977.135981 452.135981,1000 424.127557,1000 L50.8724428,1000 C22.8640193,1000 0,977.135981 0,949.127557 L0,575.872443 C0,547.864019 22.8640193,525 50.8724428,525 L371.397413,525 C382.257822,525 392.546631,529.287004 400.120337,536.86071 L463.13929,599.879663 C470.712996,607.453369 475,617.885078 475,628.602587 Z" fill="#00B8D4"></path>
            <path d="M525,371.397413 L525,50.8724428 C525,22.8640193 547.864019,0 575.872443,0 L949.127557,0 C977.135981,0 1000,22.8640193 1000,50.8724428 L1000,424.127557 C1000,452.135981 977.135981,475 949.127557,475 L628.602587,475 C617.742178,475 607.453369,470.712996 599.879663,463.13929 L536.86071,400.120337 C529.287004,392.546631 525,382.114922 525,371.397413 Z" fill="#00B8D4"></path>
            <path d="M371.397413,475 L50.8724428,475 C22.8640193,475 0,452.135981 0,424.127557 L0,50.8724428 C0,22.8640193 22.8640193,0 50.8724428,0 L424.127557,0 C452.135981,0 475,22.8640193 475,50.8724428 L475,371.397413 C475,382.257822 470.712996,392.546631 463.13929,400.120337 L400.120337,463.13929 C392.546631,470.712996 382.114922,475 371.397413,475 Z" fill="#FF8F00"></path>
        </g>
    </g>
</svg>