<svg width="128" height="128" viewBox="0 0 128 128" fill="none" xmlns="http://www.w3.org/2000/svg">
<path fill-rule="evenodd" clip-rule="evenodd" d="M78.855 29.9645C82.5004 25.7395 84.9576 19.855 84.2851 14C79.0319 14.2 72.6765 17.3558 68.9098 21.5758C65.5273 25.3207 62.5746 31.3046 63.3684 37.0446C69.2283 37.4796 75.2096 34.1944 78.855 29.9645ZM91.9956 67.1255C92.1422 82.2604 105.849 87.2951 106.001 87.3601C105.89 87.7151 103.812 94.5339 98.7808 101.584C94.4275 107.674 89.9125 113.739 82.7987 113.869C75.8112 113.994 73.5613 109.899 65.5677 109.899C57.5792 109.899 55.0815 113.739 48.4682 113.994C41.6022 114.239 36.3692 107.405 31.9856 101.335C23.0162 88.9198 16.1653 66.2509 25.3673 50.951C29.9379 43.3561 38.1034 38.5392 46.9716 38.4192C53.7113 38.2942 60.0769 42.7649 64.1975 42.7649C68.3182 42.7649 76.0539 37.3899 84.184 38.1799C87.5867 38.3149 97.1426 39.4945 103.276 48.0994C102.78 48.3944 91.8742 54.4756 91.9956 67.1255Z" fill="black"/>
</svg>
