<svg width="128" height="128" viewBox="0 0 128 128" fill="none" xmlns="http://www.w3.org/2000/svg">
<path fill-rule="evenodd" clip-rule="evenodd" d="M63.9999 14C91.6149 14 114 36.9496 114 65.2646C114 87.9096 99.6899 107.12 79.8349 113.905C77.2999 114.41 76.3999 112.809 76.3999 111.444C76.3999 109.754 76.4599 104.234 76.4599 97.3739C76.4599 92.5939 74.8599 89.4742 73.065 87.8842C84.1999 86.6142 95.8999 82.2788 95.8999 62.5888C95.8999 56.9888 93.9599 52.4191 90.7499 48.8291C91.2699 47.5341 92.9849 42.3197 90.2599 35.2597C90.2599 35.2597 86.0699 33.8861 76.5249 40.5161C72.5299 39.3811 68.2499 38.81 63.9999 38.79C59.7499 38.81 55.475 39.3811 51.485 40.5161C41.93 33.8861 37.73 35.2597 37.73 35.2597C35.015 42.3197 36.73 47.5341 37.245 48.8291C34.05 52.4191 32.095 56.9888 32.095 62.5888C32.095 82.2288 43.77 86.6307 54.875 87.9257C53.445 89.2057 52.15 91.4637 51.7 94.7787C48.85 96.0887 41.61 98.3559 37.15 90.5209C37.15 90.5209 34.505 85.5953 29.485 85.2353C29.485 85.2353 24.61 85.1705 29.145 88.3505C29.145 88.3505 32.42 89.9255 34.695 95.8505C34.695 95.8505 37.63 105 51.54 101.9C51.565 106.185 51.61 110.224 51.61 111.444C51.61 112.799 50.6899 114.385 48.1949 113.91C28.325 107.135 14 87.9146 14 65.2646C14 36.9496 36.39 14 63.9999 14Z" fill="black"/>
</svg>
