<svg width="128" height="128" viewBox="0 0 128 128" fill="none" xmlns="http://www.w3.org/2000/svg">
<path d="M89.0816 48.302C77.4648 41.8045 58.8194 31.3711 29.899 15.1779C27.9492 13.8902 25.7059 13.7215 23.7676 14.3775L73.3868 63.9968L89.0816 48.302Z" fill="#32BBFF"/>
<path d="M23.7682 14.3779C23.4049 14.501 23.0514 14.6494 22.7133 14.8287C20.5729 15.9865 19 18.2145 19 21.0322V106.962C19 109.78 20.5727 112.008 22.7133 113.165C23.0508 113.345 23.4041 113.494 23.767 113.617L73.3874 63.9972L23.7682 14.3779Z" fill="#32BBFF"/>
<path d="M73.388 63.9971L23.7676 113.617C25.7064 114.278 27.9498 114.122 29.9002 112.816C57.9467 97.1108 76.3819 86.801 88.1331 80.2483C88.4603 80.0645 88.7808 79.8848 89.0976 79.7069L73.388 63.9971Z" fill="#32BBFF"/>
<path d="M19 63.9961V106.961C19 109.779 20.5727 112.007 22.7133 113.164C23.0508 113.343 23.4041 113.492 23.767 113.616L73.3874 63.9961H19Z" fill="#2C9FD9"/>
<path d="M29.8992 15.1773C27.5838 13.6484 24.8533 13.692 22.7129 14.8279L72.6339 64.7491L89.0816 48.3014C77.465 41.8039 58.8196 31.3705 29.8992 15.1773Z" fill="#29CC5E"/>
<path d="M72.6343 63.2432L22.7129 113.164C24.8535 114.3 27.5838 114.366 29.8992 112.815C57.9458 97.1096 76.381 86.7999 88.1322 80.2471C88.4593 80.0633 88.7798 79.8836 89.0966 79.7057L72.6343 63.2432Z" fill="#D93F21"/>
<path d="M109.802 63.9967C109.802 61.6158 108.601 59.2131 106.22 57.8807C106.22 57.8807 101.767 55.3961 88.1178 47.7617L71.8828 63.9967L88.1336 80.2477C101.633 72.6682 106.22 70.1125 106.22 70.1125C108.601 68.7803 109.802 66.3776 109.802 63.9967Z" fill="#FFD500"/>
<path d="M106.22 70.1121C108.601 68.7797 109.802 66.377 109.802 63.9961H71.8828L88.1336 80.2471C101.633 72.6678 106.22 70.1121 106.22 70.1121Z" fill="#FFAA00"/>
</svg>
