<svg width="24" height="24" viewBox="0 0 24 24" fill="none" xmlns="http://www.w3.org/2000/svg">
<g clip-path="url(#clip0_1016_480)">
<path d="M5.73755 14.025C6.07505 13.8 6.37505 13.2375 6.18755 12.825C5.73755 13.05 5.77505 13.5 5.73755 14.025Z" fill="#E3E3F8"/>
<path d="M11.0625 15.3C11.4375 15.1875 11.8125 14.775 11.5875 14.325C11.325 14.5125 11.1375 14.8125 11.0625 15.3Z" fill="#E3E3F8"/>
<path d="M0.59998 21.4875C0.59998 21.975 0.71248 22.4625 1.04998 22.65C2.24998 23.325 6.52498 22.8 7.94998 22.4625C8.69998 22.275 9.33748 21.7125 10.0125 21.4125C11.625 20.7 12.7875 20.1375 14.0625 19.2375C15 18.5625 16.4625 16.65 16.6125 15.4875L15.375 15.225C15.3375 16.5 15.0375 16.8 13.9125 17.1C13.125 17.325 11.625 17.3625 10.8375 17.2125C9.78748 17.025 9.33748 16.5 8.84998 15.8625C7.94998 14.6625 9.03748 13.8 7.61248 13.725C6.11248 15.6 3.41248 14.25 2.24998 14.0625C1.76248 14.775 0.56248 19.5 0.59998 20.5875C1.31248 20.325 1.79998 20.625 2.43748 20.85C4.72498 21.75 2.73748 22.5375 1.79998 22.3125C1.16248 22.1625 0.97498 21.75 0.59998 21.4875Z" fill="#FDFDFD"/>
<path d="M3.63745 10.7625C4.57495 10.95 5.39995 11.325 6.18745 11.7375C7.49995 12.375 7.72495 12.3 7.83745 13.2C7.83745 13.35 7.83745 13.4625 8.28745 13.6125C9.07495 13.875 7.83745 13.425 9.93745 13.425C11.2125 13.425 14.1 13.95 15.0375 14.55C15.4125 14.8125 15.3375 15.1125 16.65 15.075C16.65 13.5375 16.2375 11.2125 15.6 9.78751C14.85 8.06251 13.875 7.80001 11.8875 7.16251C10.725 6.78751 7.31245 6.37501 6.22495 7.05001C5.21245 7.68751 5.02495 8.40001 4.12495 9.71251C3.89995 10.0125 3.78745 10.3125 3.63745 10.7625Z" fill="#FDFDFD"/>
<path d="M11.8499 13.9125C12.5999 14.2125 11.8124 16.2 10.7624 15.7125C10.4249 14.775 11.2124 14.2125 11.4374 13.8C10.9874 13.725 9.71237 13.5375 9.33737 13.6875C8.84987 13.875 8.73737 14.925 8.99987 15.4125C10.1999 17.775 15.4874 17.25 14.9249 15.45C14.6999 14.7 14.4749 14.5875 13.7249 14.325C13.1249 14.1375 12.5249 13.9125 11.8499 13.9125Z" fill="#FDFDFD"/>
<path d="M2.4751 13.65C3.0751 14.2125 4.4251 14.325 5.2876 14.3625C5.4001 13.2 5.5126 12.3375 6.4126 12.4125C6.8626 13.05 6.6376 13.7625 6.1501 14.25C6.9751 14.25 7.4251 13.6125 7.3126 12.75C6.6376 12.2625 4.5376 11.25 3.4876 11.1375C3.2251 11.4375 2.5126 13.125 2.4751 13.65Z" fill="#FDFDFD"/>
<path d="M1.04995 21.075C1.53745 21.0375 2.81245 21.4125 2.92495 21.825C2.13745 21.9 1.12495 21.825 1.04995 21.075ZM0.599951 21.4875C0.974951 21.75 1.16245 22.1625 1.79995 22.3125C2.73745 22.5375 4.72495 21.75 2.43745 20.85C1.79995 20.5875 1.31245 20.325 0.599951 20.5875C0.599951 19.5 1.76245 14.8125 2.24995 14.0625C3.41245 14.25 6.11245 15.6 7.61245 13.725C9.07495 13.8 7.94995 14.6625 8.84995 15.8625C9.33745 16.5 9.78745 17.025 10.8375 17.2125C11.625 17.3625 13.125 17.2875 13.9125 17.1C15.075 16.8 15.3375 16.5 15.375 15.225L16.65 15.525C16.5 16.6875 15.0375 18.6 14.1 19.275C12.825 20.2125 11.6625 20.775 10.05 21.45C9.33745 21.75 8.73745 22.3125 7.98745 22.5C6.52495 22.8375 2.28745 23.3625 1.08745 22.6875C0.712451 22.4625 0.599951 21.975 0.599951 21.4875ZM11.0625 15.3C11.1 14.8125 11.2875 14.5125 11.5875 14.325C11.8125 14.775 11.4375 15.1875 11.0625 15.3ZM11.85 13.9125C12.525 13.9125 13.125 14.1375 13.725 14.325C14.475 14.5875 14.7 14.7 14.925 15.45C15.4875 17.2875 10.2 17.775 8.99995 15.4125C8.73745 14.925 8.84995 13.875 9.33745 13.6875C9.71245 13.5375 10.9875 13.7625 11.4375 13.8C11.25 14.25 10.4625 14.775 10.8 15.75C11.8125 16.2 12.6 14.25 11.85 13.9125ZM5.73745 14.025C5.73745 13.5 5.73745 13.05 6.18745 12.825C6.37495 13.2375 6.11245 13.8 5.73745 14.025ZM2.47495 13.65C2.51245 13.125 3.22495 11.4 3.52495 11.1C4.57495 11.25 6.67495 12.225 7.34995 12.7125C7.46245 13.6125 7.01245 14.2125 6.18745 14.2125C6.67495 13.725 6.89995 13.0125 6.44995 12.375C5.51245 12.3 5.43745 13.1625 5.32495 14.325C4.42495 14.325 3.07495 14.25 2.47495 13.65ZM1.72495 13.05C1.46245 12.3 1.46245 11.1 2.62495 10.9875L2.02495 12.6375C1.83745 13.05 1.83745 12.975 1.72495 13.05ZM3.63745 10.7625C3.82495 10.3125 3.89995 10.05 4.16245 9.6375C5.09995 8.325 5.28745 7.6125 6.26245 6.975C7.31245 6.3 10.7625 6.7125 11.925 7.0875C13.9125 7.725 14.8875 7.9875 15.6375 9.7125C16.2375 11.1375 16.65 13.4625 16.6875 15C15.375 15.0375 15.45 14.7375 15.075 14.475C14.1375 13.875 11.25 13.3875 9.97495 13.35C7.83745 13.35 9.11245 13.8 8.32495 13.5375C7.83745 13.3875 7.87495 13.3125 7.87495 13.125C7.76245 12.225 7.53745 12.3 6.22495 11.6625C5.39995 11.325 4.57495 10.9125 3.63745 10.7625ZM16.875 10.3875C16.725 9.9 16.9875 9.9375 17.4375 9.6375C17.7 9.45 17.925 9.2625 18.225 9.075C19.425 8.4 21.675 8.2875 22.65 9.075C23.025 9.4125 23.6625 10.0125 23.5875 10.8375C23.4 12.4875 22.275 13.3875 21.3375 14.1375C20.4 14.8875 18.8625 15.675 17.25 15.15C17.1 14.8125 17.2125 12.75 17.0625 11.9625C16.9125 11.2875 16.9875 11.2125 17.4 10.8C18.5625 9.6 21.1125 8.7 22.5375 9.75C23.1375 10.2 22.9875 10.3875 23.2875 10.725C23.6625 10.3125 22.95 8.8875 20.2875 9C18.4125 9.0375 17.625 10.4625 16.875 10.3875ZM5.96245 6.1125C5.99995 5.0625 6.97495 2.925 7.91245 2.175C9.07495 1.275 10.275 0.450002 12.075 1.425C12.525 1.6875 12.4875 1.8 12.525 2.4C12.5625 3 12.525 3.225 12.375 3.675C11.175 7.5 10.2 5.2875 6.41245 6.1875C6.56245 4.95 7.64995 3.825 8.21245 3.2625C9.22495 2.25 9.97495 1.6125 11.5125 1.8375C11.925 2.55 12 3 11.475 3.825C10.8 4.95 10.6125 4.875 10.725 5.625C11.25 5.475 11.4375 4.95 11.6625 4.425C13.1625 1.275 10.9875 0.900003 9.63745 1.4625C8.73745 1.8375 7.12495 3.6 6.59995 4.6875C6.48745 4.9125 6.37495 5.175 6.29995 5.4L5.96245 6.1125ZM11.8875 6.2625C12.0375 5.325 12.975 5.1 12.975 2.2125C12.975 0.975002 11.4375 -0.149998 9.44995 0.675002C7.72495 1.3875 7.46245 1.9125 6.56245 3.3C5.69995 4.6125 5.73745 6.0375 4.98745 7.2375C4.76245 7.575 4.57495 7.6875 4.34995 8.0625C4.16245 8.325 4.04995 8.625 3.86245 8.925C3.52495 9.4875 3.14995 9.9375 2.84995 10.6125C1.94995 10.65 1.19995 10.65 1.12495 11.5875C1.01245 12.8625 1.61245 13.1625 1.61245 13.65C1.61245 14.175 -0.487549 19.3875 0.112451 22.4625C0.262451 23.325 0.824951 23.325 1.72495 23.4375C3.89995 23.7 6.67495 23.625 8.62495 22.8375L12.15 21.15C13.05 20.6625 14.55 19.6875 15.1875 19.0125C15.675 18.525 15.9 18.1125 16.3125 17.55C16.875 16.725 16.875 16.7625 16.9875 15.675C17.7375 15.825 19.0875 16.125 19.5375 16.5375C19.5 17.0625 19.2375 16.8 19.2375 17.2875C19.5375 17.2875 20.025 16.9125 20.1375 16.5375C19.8375 16.0875 19.5 16.1625 19.05 15.7875C19.3875 15.525 20.025 15.375 20.5125 15.1875C21.5625 14.7375 23.3625 13.425 23.775 12.225C24.1125 11.25 23.85 9.6375 23.2875 9.0375C22.6875 8.3625 21.3 8.025 20.175 8.025C18.825 8.025 17.4375 9 16.3125 9.4125C15.9 9.0375 15.8625 8.625 15.5625 8.2125C15.3 7.725 12.975 6.525 11.8875 6.2625Z" fill="#020202"/>
<path d="M16.8749 10.3875C17.6249 10.4625 18.4124 9.0375 20.2499 8.9625C22.9124 8.8875 23.6624 10.275 23.2499 10.6875C22.9499 10.35 23.0999 10.1625 22.4999 9.7125C21.0749 8.6625 18.5249 9.5625 17.3624 10.7625C16.9499 11.175 16.8749 11.25 17.0249 11.925C17.1749 12.7125 17.0624 14.775 17.2124 15.1125C18.8249 15.6375 20.3624 14.85 21.2999 14.1C22.2374 13.35 23.3249 12.45 23.5499 10.8C23.6624 9.975 23.0249 9.3375 22.6124 9.0375C21.6374 8.25 19.4249 8.3625 18.1874 9.0375C17.8499 9.225 17.6624 9.4125 17.3999 9.6C16.9874 9.9375 16.7249 9.9 16.8749 10.3875Z" fill="#FDF2F2"/>
<path d="M5.9624 6.1125L6.3374 5.475C6.4499 5.25 6.5624 4.9875 6.6374 4.7625C7.1624 3.7125 8.7749 1.95 9.6749 1.5375C11.0249 0.975004 13.1999 1.35 11.6999 4.5C11.4374 5.025 11.2874 5.55 10.7624 5.7C10.6499 4.95 10.8374 5.025 11.5124 3.9C12.0374 3.075 11.9999 2.625 11.5499 1.9125C10.0124 1.6875 9.2624 2.3625 8.2499 3.3375C7.6499 3.9 6.5624 5.025 6.4499 6.2625C10.2374 5.3625 11.2124 7.5375 12.4124 3.75C12.5624 3.2625 12.5999 3.0375 12.5624 2.475C12.5249 1.875 12.5249 1.725 12.1124 1.5C10.3499 0.487504 9.1124 1.35 7.9499 2.25C6.9749 2.925 5.9999 5.1 5.9624 6.1125Z" fill="#FEF3F3"/>
<path d="M1.72502 13.05C1.87502 12.9375 1.87502 13.0125 2.02502 12.675L2.62502 11.025C1.42502 11.1 1.42502 12.3 1.72502 13.05Z" fill="#EFEFEF"/>
<path d="M2.92505 21.825C2.81255 21.4125 1.53755 21.0375 1.05005 21.075C1.12505 21.825 2.13755 21.9 2.92505 21.825Z" fill="#FAF1F1"/>
</g>
<defs>
<clipPath id="clip0_1016_480">
<rect width="24" height="24" fill="white"/>
</clipPath>
</defs>
</svg>
