<svg width="24" height="24" viewBox="0 0 24 24" fill="none" xmlns="http://www.w3.org/2000/svg">
<path fill-rule="evenodd" clip-rule="evenodd" d="M16.5669 7.58641H8.04158V7.58818C8.02973 7.58765 8.01805 7.58641 8.00614 7.58641C7.56358 7.58641 7.20483 7.94415 7.20483 8.38547C7.20483 8.82673 7.56358 9.18447 8.00614 9.18447C8.01805 9.18447 8.02973 9.18323 8.04158 9.18269V9.18447H16.5669C17.0094 9.18447 17.3682 8.82673 17.3682 8.38547C17.3682 7.94415 17.0094 7.58641 16.5669 7.58641Z" fill="#00B173"/>
<path fill-rule="evenodd" clip-rule="evenodd" d="M16.5669 15.1981H8.04158V15.1998C8.02973 15.1993 8.01805 15.1981 8.00614 15.1981C7.56358 15.1981 7.20483 15.5558 7.20483 15.9971C7.20483 16.4383 7.56358 16.7961 8.00614 16.7961C8.01805 16.7961 8.02973 16.7949 8.04158 16.7944V16.7961H16.5669C17.0094 16.7961 17.3682 16.4383 17.3682 15.9971C17.3682 15.5558 17.0094 15.1981 16.5669 15.1981Z" fill="#00B173"/>
<path fill-rule="evenodd" clip-rule="evenodd" d="M14.3271 12.1913C14.3271 11.7746 14.0071 11.4328 13.5988 11.3959V11.3922H6.2889V11.394C6.27704 11.3935 6.26542 11.3922 6.25345 11.3922C5.81089 11.3922 5.45215 11.7499 5.45215 12.1913C5.45215 12.6326 5.81089 12.9903 6.25345 12.9903C6.26542 12.9903 6.27704 12.989 6.2889 12.9885V12.9903H13.5988V12.9866C14.0071 12.9497 14.3271 12.6079 14.3271 12.1913Z" fill="#00B173"/>
<path d="M22 6.26667L12 0.495834L2 6.26667V17.8083L12 23.5792L22 17.8083V6.26667ZM12 2.22179L20.504 7.12965V16.9443L12 21.8521L3.49489 16.9443V7.12965L12 2.22179Z" fill="#00B173"/>
</svg>
