<svg width="24" height="24" viewBox="0 0 24 24" fill="none" xmlns="http://www.w3.org/2000/svg">
<g clip-path="url(#clip0_1016_543)">
<path d="M7.91678 17.8853C7.91681 18.1355 7.86135 18.3825 7.75441 18.6086C7.64747 18.8348 7.49171 19.0344 7.29834 19.1931C7.10497 19.3518 6.87881 19.4656 6.63615 19.5264C6.39349 19.5871 6.14037 19.5933 5.89503 19.5445C5.56687 19.4793 5.26544 19.3181 5.02885 19.0816C4.79226 18.845 4.63115 18.5435 4.5659 18.2154C4.49516 17.8594 4.54075 17.4902 4.69593 17.1621C4.85112 16.8341 5.10768 16.5646 5.42772 16.3936C5.74777 16.2225 6.11435 16.1589 6.47332 16.2121C6.8323 16.2653 7.16465 16.4325 7.4213 16.6891C7.73854 17.0064 7.91677 17.4366 7.91678 17.8853ZM22.6766 16.1244C22.1374 12.3747 20.3982 8.90054 17.7195 6.22186C15.0409 3.54317 11.5667 1.80405 7.81704 1.2648C6.92087 1.74052 6.09401 2.33663 5.35947 3.03653V4.67107C9.04596 4.67407 12.5808 6.13906 15.1886 8.74473C17.7964 11.3504 19.2643 14.884 19.2704 18.5705H20.905C21.5986 17.835 22.1941 17.0128 22.6766 16.1244Z" fill="#E7352C"/>
<path d="M24.0001 10.993C24.0001 8.81084 23.3509 6.678 22.1351 4.86596C20.9192 3.05392 19.1917 1.64462 17.1724 0.817454C15.8317 0.268218 14.3956 -0.0106479 12.9468 -0.00311682C12.5582 -0.00311682 12.181 -0.00311682 11.8038 0.0540765L11.5523 0.785646C14.2286 1.72354 16.6598 3.25111 18.666 5.25538C20.6723 7.25965 22.2023 9.68932 23.1428 12.3647L23.8743 12.1018C23.8743 11.736 23.9429 11.3702 23.9429 10.9587M13.0733 24.0002C9.61512 24.0002 6.29771 22.6303 3.84704 20.1904C1.39638 17.7504 0.0120115 14.439 -0.00311376 10.9809C-0.0083392 9.26283 0.327426 7.56083 0.984727 5.97349C1.64203 4.38615 2.6078 2.94503 3.82607 1.73363L4.56905 2.43093C3.43685 3.55313 2.53815 4.88849 1.92485 6.3599C1.31154 7.83132 0.995772 9.40965 0.995772 11.0038C0.995772 12.5979 1.31154 14.1762 1.92485 15.6476C2.53815 17.119 3.43685 18.4544 4.56905 19.5766C5.69127 20.7088 7.02664 21.6074 8.49805 22.2207C9.96947 22.834 11.5478 23.1497 13.1419 23.1497C14.736 23.1497 16.3143 22.834 17.7857 22.2207C19.2571 21.6074 20.5925 20.7088 21.7147 19.5766L22.412 20.2739C21.1817 21.4851 19.7219 22.4386 18.1183 23.0785C16.5147 23.7183 14.7996 24.0317 13.0733 24.0002Z" fill="#E7352C"/>
<path d="M12.926 19.3257C13.0439 18.0389 12.8319 16.7433 12.3099 15.5613C11.7879 14.3793 10.9731 13.3499 9.94265 12.5703C8.83862 11.7009 7.51102 11.162 6.11346 11.0157C5.93871 10.993 5.77907 10.9049 5.66666 10.7691C5.55426 10.6334 5.49743 10.4601 5.50762 10.2842C5.51838 10.149 5.56963 10.0202 5.65468 9.91464C5.73974 9.80903 5.85465 9.7315 5.98443 9.69218C6.07059 9.66607 6.16112 9.6575 6.25065 9.66697C8.60974 9.91234 10.7757 11.0817 12.2751 12.9195C13.7744 14.7573 14.4852 17.114 14.2519 19.4743C14.2049 19.9973 14.1053 20.5143 13.9548 21.0174L15.9436 21.5775C16.5322 21.4082 17.1057 21.1903 17.6582 20.926C17.8062 20.1537 17.8789 19.369 17.8754 18.5827C17.872 15.5813 16.795 12.6801 14.8391 10.4035C12.8832 8.12683 10.1774 6.62494 7.21081 6.16924C6.54955 6.04771 5.87168 6.04771 5.21043 6.16924C4.3734 6.39039 3.62128 6.85599 3.05011 7.50659C2.5896 8.0398 2.26802 8.67855 2.11396 9.36604C1.9599 10.0535 1.97813 10.7684 2.16705 11.4472C2.35596 12.1259 2.70969 12.7474 3.19678 13.2565C3.68387 13.7655 4.28921 14.1462 4.95897 14.3649C5.31328 14.4494 5.67199 14.5142 6.03346 14.5592C6.96709 14.7184 7.81429 15.2028 8.42513 15.9266C9.03597 16.6504 9.37107 17.567 9.37113 18.5141C9.3711 19.281 9.14876 20.0314 8.73102 20.6745L10.1027 21.5547C10.775 21.7391 11.4644 21.854 12.1602 21.8975C12.5702 21.0747 12.8259 20.1836 12.9146 19.2685" fill="#E7352C"/>
</g>
<defs>
<clipPath id="clip0_1016_543">
<rect width="24" height="24" fill="white"/>
</clipPath>
</defs>
</svg>
