<svg width="24" height="24" viewBox="0 0 24 24" fill="none" xmlns="http://www.w3.org/2000/svg">
<path d="M7.18326 5C7.18326 5 3.5 8.78902 3.5 15.4758C3.5 21.0881 5.80563 23.5 7.91956 23.5C8.90169 23.5 12.0933 22.8315 15.2855 17.7051C18.9739 11.7814 18.4777 9.01239 18.4777 9.01239L7.18326 5Z" fill="#FE900D"/>
<path d="M15.9389 4.30778C14.2803 4.30778 13.4512 4.6925 13.4512 4.6925C12.4754 2.87427 11.7195 2 9.28057 2C4.89003 2 3.5 5.11179 3.5 6.02118C3.5 6.33785 4.10973 6.61555 5.57343 6.61555C7.03713 6.61555 8.8907 6.23083 8.8907 6.23083C8.61077 6.75056 8.4759 7.38445 8.4759 8.15389C8.4759 10.0769 9.71973 11.6153 11.3784 11.6153C13.866 11.6153 15.1099 8.92333 15.1099 8.92333C15.1099 8.92333 18.0123 12 19.0369 12C20.0127 12 20.5 10.6367 20.5 8.81796C20.5 7.45415 19.3536 4.30778 15.9389 4.30778Z" fill="#4AAE52"/>
<path d="M13.1145 5.5C13.0315 5.5 12.9479 5.48614 12.8674 5.45638C12.5569 5.34193 12.4155 5.03914 12.552 4.77997C13.0493 3.83722 14.784 1.56526 16.5446 0.586579C16.8267 0.428512 17.2085 0.493175 17.3966 0.72925C17.5853 0.964811 17.5084 1.28351 17.2257 1.44055C15.6643 2.30889 14.055 4.47718 13.6776 5.19362C13.5755 5.38556 13.3505 5.5 13.1145 5.5Z" fill="#4AAE52"/>
<path d="M5.53395 17.5C5.29118 17.5 5.08171 17.2755 5.05468 16.973C4.90168 15.2494 5.07013 13.3811 5.55518 11.4201C5.63241 11.1075 5.90221 10.9302 6.15704 11.026C6.41236 11.1205 6.55667 11.4502 6.47896 11.7628C6.03204 13.5708 5.87566 15.2813 6.01418 16.8453C6.04314 17.1703 5.85153 17.4616 5.58656 17.497C5.5687 17.4988 5.55132 17.5 5.53395 17.5Z" fill="#FDC82E"/>
</svg>
