<svg width="24" height="24" viewBox="0 0 24 24" fill="none" xmlns="http://www.w3.org/2000/svg">
<path fill-rule="evenodd" clip-rule="evenodd" d="M8.94 11.6888H9.6174C9.8274 11.6888 9.9954 11.6606 10.1196 11.6048C10.2438 11.549 10.3395 11.4683 10.4058 11.3636C10.4721 11.2589 10.5168 11.1296 10.5402 10.9766C10.5636 10.8236 10.5753 10.6454 10.5753 10.4435C10.5753 10.2416 10.5633 10.0637 10.5402 9.9104C10.5171 9.7571 10.4682 9.626 10.3941 9.5174C10.32 9.4088 10.2141 9.3284 10.0845 9.2762C9.9549 9.224 9.777 9.1976 9.5589 9.1976H8.94V11.6888ZM7.749 8.0738H9.6645C11.0661 8.0738 11.7669 8.8889 11.7669 10.5194C11.7669 11.003 11.691 11.4185 11.5389 11.7656C11.3868 12.1127 11.1204 12.3917 10.7388 12.6026L12.0234 16.4054H10.7619L9.6339 12.7865H8.94V16.4054H7.749V8.0738ZM12.7242 8.0738H14.511C14.841 8.0738 15.126 8.1167 15.375 8.2028C15.624 8.2889 15.8499 8.4407 16.0524 8.6588C16.254 8.87548 16.3985 9.13888 16.473 9.4253C16.551 9.7178 16.59 10.1138 16.59 10.6133C16.59 10.9799 16.5606 11.2424 16.518 11.5037C16.4754 11.765 16.3371 12.2198 15.7938 12.5282C15.4542 12.7211 14.9667 12.7904 14.523 12.7904H13.9158V16.4054H12.7248L12.7242 8.0738ZM13.9152 11.6888H14.4876C14.7291 11.6888 14.9157 11.6579 15.0486 11.5958C15.1815 11.5337 15.2784 11.45 15.3405 11.3438C15.4026 11.2376 15.4395 11.1086 15.4515 10.9577C15.4635 10.8068 15.4689 10.6385 15.4689 10.4531C15.4689 10.2815 15.4629 10.1186 15.4515 9.9641C15.4401 9.8096 15.4047 9.6761 15.3465 9.5621C15.2883 9.4481 15.1965 9.3596 15.072 9.2945C14.9475 9.2294 14.7684 9.1967 14.535 9.1967H13.9161L13.9152 11.6888ZM21.2613 14.5448C21.2613 14.8022 21.2127 15.0479 21.1152 15.2819C21.0177 15.5159 20.8836 15.7208 20.7123 15.8963C20.5396 16.0728 20.3357 16.2156 20.1108 16.3175C19.878 16.4235 19.625 16.4775 19.3692 16.4756C19.1433 16.4756 18.9138 16.4444 18.6801 16.382C18.4493 16.321 18.2343 16.2112 18.0495 16.0601C17.8626 15.908 17.709 15.707 17.5881 15.4571C17.4672 15.2072 17.4072 14.8916 17.4072 14.5091V9.9191C17.4072 9.6491 17.454 9.3926 17.5473 9.1586C17.6406 8.9246 17.7732 8.7218 17.9445 8.5502C18.1158 8.3786 18.3201 8.2442 18.5577 8.1464C18.7953 8.0486 19.0581 8 19.3461 8C19.6185 8 19.8717 8.0489 20.1051 8.1464C20.3385 8.2439 20.541 8.3804 20.7123 8.5559C20.8836 8.7314 21.0183 8.942 21.1152 9.1877C21.2121 9.4334 21.2613 9.6977 21.2613 9.9893V10.4573H20.0703V10.0595C20.0703 9.8255 20.0043 9.6227 19.8717 9.4511C19.8096 9.36797 19.7283 9.30113 19.6347 9.2563C19.5411 9.21147 19.4381 9.18999 19.3344 9.1937C19.0386 9.1937 18.8418 9.2855 18.7446 9.4688C18.6474 9.6521 18.5985 9.8843 18.5985 10.1648V14.4242C18.5985 14.666 18.651 14.8688 18.7563 15.0326C18.8616 15.1964 19.0503 15.2786 19.3227 15.2786C19.4007 15.2786 19.4847 15.2648 19.5738 15.2375C19.6629 15.2102 19.7448 15.1655 19.8192 15.1025C19.8936 15.0395 19.9536 14.9543 20.0001 14.8451C20.0466 14.7359 20.0703 14.5991 20.0703 14.4356V14.0261H21.2613V14.5448ZM23.5953 12.2288C23.5953 11.9246 23.3493 11.678 23.0463 11.678H20.0712V12.779H22.497V14.0075H22.1232L23.0526 15.3206L23.982 14.0075H23.5956L23.5953 12.2288ZM2.7033 12.7898V14.4389C2.7033 14.7821 2.7618 15.0809 2.8785 15.3341C2.9952 15.5873 3.1491 15.7982 3.3399 15.9659C3.5307 16.1336 3.7449 16.2605 3.9819 16.3463C4.21196 16.4308 4.45502 16.4743 4.7001 16.475C4.94517 16.4743 5.18824 16.4308 5.4183 16.3463C5.6559 16.2605 5.8698 16.1333 6.0603 15.9659C6.2508 15.7985 6.4047 15.5879 6.5217 15.3341C6.6387 15.0803 6.6969 14.7821 6.6969 14.4389V11.6909L4.5624 11.6879L4.5594 12.7898H5.5053V14.4392C5.5053 14.7278 5.4255 14.9402 5.2659 15.077C5.10877 15.2127 4.90709 15.2857 4.6995 15.2819C4.49191 15.2857 4.29022 15.2127 4.1331 15.077C3.9735 14.9405 3.8937 14.7278 3.8937 14.4392V10.0397C3.8937 9.7511 3.9735 9.5387 4.1331 9.4019C4.29022 9.26618 4.49191 9.19322 4.6995 9.197C4.90709 9.19322 5.10877 9.26618 5.2659 9.4019C5.4255 9.5384 5.5053 9.7511 5.5053 10.0397V10.4609H6.6963V10.0397C6.6963 9.7043 6.6378 9.4079 6.5211 9.1505C6.4044 8.8931 6.2505 8.6804 6.0597 8.5127C5.8689 8.345 5.6547 8.2181 5.4177 8.1323C5.18764 8.04782 4.94458 8.00426 4.6995 8.0036C4.45442 8.00426 4.21136 8.04782 3.9813 8.1323C3.7437 8.2181 3.5298 8.3453 3.3393 8.5127C3.1488 8.6801 2.9949 8.8931 2.8779 9.1505C2.7609 9.4079 2.7027 9.7043 2.7027 10.0397V11.6888H1.485V10.4606H1.8588L0.9294 9.1475L0 10.4606H0.3864V12.2396C0.3864 12.5438 0.6324 12.7904 0.9354 12.7904H2.7033V12.7898Z" fill="#2DA6B0"/>
</svg>
