<svg viewBox="0 0 24 24" fill="none" xmlns="http://www.w3.org/2000/svg">
<g clip-path="url(#clip0_1001_506)">
<path d="M11.9898 8.88375L9.49609 6.0645" stroke="#284A6A" stroke-width="0.26" stroke-miterlimit="10"/>
<path d="M4.125 6.7155L6.07687 9.5655" stroke="#284A6A" stroke-width="0.13" stroke-miterlimit="10"/>
<path d="M11.9898 8.88751L14.4566 6.03751M14.9718 12.0326L17.8995 9.56588M14.9718 12.0289L17.8995 14.604M14.484 17.8575L11.9902 15.0926L9.49646 17.8575M6.08021 14.4956L8.89946 12.0289M6.08058 9.56138L8.89983 12.0281M11.9898 8.88338L6.07983 9.56101M11.9898 8.88376L17.8998 9.56138" stroke="#284A6A" stroke-width="0.26" stroke-miterlimit="10"/>
<path d="M14.4563 6.03751L14.9719 12.0289L14.4844 17.8571" stroke="#284A6A" stroke-width="0.26" stroke-miterlimit="10"/>
<path d="M17.8996 14.604L11.9896 15.0915M6.08032 14.4953L11.9903 15.0953" stroke="#284A6A" stroke-width="0.26" stroke-miterlimit="10"/>
<path d="M9.496 17.8575L8.896 12.0293M9.496 6.06488L8.896 12.0285" stroke="#284A6A" stroke-width="0.26" stroke-miterlimit="10"/>
<path d="M3.36938 10.3208L6.08063 9.56175M6.64951 4.032L9.49951 6.06525M9.49613 6.06525L10.1468 2.75775L14.4563 6.0375" stroke="#284A6A" stroke-width="0.13" stroke-miterlimit="10"/>
<path d="M13.8059 2.75775L14.4562 6.0375L19.8513 6.7155M17.3032 4.032L14.4532 6.03825M19.8513 6.71175L17.8994 9.56175L20.6643 10.3208" stroke="#284A6A" stroke-width="0.13" stroke-miterlimit="10"/>
<path d="M17.8996 9.56175L20.6109 13.6823M13.8061 2.75775L9.49585 6.06525" stroke="#284A6A" stroke-width="0.13" stroke-miterlimit="10"/>
<path d="M17.8996 9.56176L17.2996 4.03163M17.8996 14.604L20.6108 13.6823" stroke="#284A6A" stroke-width="0.13" stroke-miterlimit="10"/>
<path d="M17.8996 14.604L20.6645 10.3208M17.8996 14.604L19.8515 17.2335M17.8996 14.604L17.2996 19.917M14.4841 17.8575L17.3034 19.9178" stroke="#284A6A" stroke-width="0.13" stroke-miterlimit="10"/>
<path d="M14.484 17.8575L19.8513 17.2339M14.484 17.8575L13.8375 21.1875M14.484 17.8575L10.1467 21.1875M9.49609 17.8575L10.1467 21.195" stroke="#284A6A" stroke-width="0.13" stroke-miterlimit="10"/>
<path d="M9.49612 17.8575L13.8375 21.1875M6.64987 19.9177L9.49988 17.8575L4.125 17.2605L6.08025 14.4956" stroke="#284A6A" stroke-width="0.13" stroke-miterlimit="10"/>
<path d="M6.64952 19.9174L6.08027 14.4956L3.34277 13.6556L6.08027 9.56175" stroke="#284A6A" stroke-width="0.13" stroke-miterlimit="10"/>
<path d="M6.08039 14.4956L3.36914 10.3211M6.64964 4.03238L6.08039 9.5625" stroke="#284A6A" stroke-width="0.13" stroke-miterlimit="10"/>
<path d="M4.125 6.71551L9.49237 6.06488" stroke="#284A6A" stroke-width="0.13" stroke-miterlimit="10"/>
<path d="M4.56226 3.05625L6.64951 4.032L6.48751 1.755L10.1468 2.75775" stroke="#24405D" stroke-width="0.101" stroke-miterlimit="10"/>
<path d="M6.64941 4.032L8.57429 0.833247L10.1467 2.75775L10.7969 0.449997L13.8059 2.75775" stroke="#24405D" stroke-width="0.101" stroke-miterlimit="10"/>
<path d="M10.1428 2.75738L13.1248 0.372375L13.8058 2.75775L15.3782 0.832875M17.3031 4.03163L15.3748 0.83325" stroke="#24405D" stroke-width="0.101" stroke-miterlimit="10"/>
<path d="M17.3032 4.032L17.4929 1.755M17.3032 4.032L19.4407 2.9475M17.3032 4.032L21.0168 4.60125M13.8059 2.75775L17.4922 1.75462" stroke="#24405D" stroke-width="0.101" stroke-miterlimit="10"/>
<path d="M19.8512 6.71549L21.0167 4.60124M19.8512 6.71549L19.4443 2.94749M19.8512 6.71549L22.291 6.52574M19.8512 6.71549L23.1887 8.61299" stroke="#24405D" stroke-width="0.101" stroke-miterlimit="10"/>
<path d="M20.6642 10.3208L22.2906 6.52576M20.6642 10.3208L23.1854 8.61301M20.6642 10.3208L23.4835 10.89L20.6099 13.6823" stroke="#24405D" stroke-width="0.101" stroke-miterlimit="10"/>
<path d="M20.6643 10.3208L23.5649 13.14L20.6099 13.6823L23.1311 15.363L19.8513 17.2335" stroke="#24405D" stroke-width="0.101" stroke-miterlimit="10"/>
<path d="M19.8513 17.2335L22.264 17.4773L20.614 13.6823M20.9935 19.371L19.855 17.2335L19.4211 20.9745" stroke="#24405D" stroke-width="0.101" stroke-miterlimit="10"/>
<path d="M19.4175 20.9745L17.3032 19.917M17.3032 19.917L17.466 22.2795M17.3032 19.917L20.9895 19.3748M17.3032 19.917L15.375 23.1701" stroke="#24405D" stroke-width="0.101" stroke-miterlimit="10"/>
<path d="M13.8375 21.1875L15.375 23.1664M13.8375 21.1875L17.4701 22.272M13.8375 21.1875L13.125 23.6273M13.8375 21.1875L10.8015 23.6273" stroke="#24405D" stroke-width="0.101" stroke-miterlimit="10"/>
<path d="M10.1467 21.1875L10.7973 23.6272M10.1467 21.1875L13.1249 23.6272M10.1467 21.1875L8.60166 23.1664M6.64941 19.917L8.60129 23.1701" stroke="#24405D" stroke-width="0.101" stroke-miterlimit="10"/>
<path d="M10.1468 21.1875L6.4605 22.326M6.45975 22.3297L6.6495 19.917L4.53525 21.0825M4.125 17.2605L4.5315 21.0829" stroke="#24405D" stroke-width="0.101" stroke-miterlimit="10"/>
<path d="M6.64954 19.917L2.93629 19.4025M4.12504 17.2605L2.93255 19.398M4.12504 17.2605L1.68529 17.5042M4.12504 17.2605L0.767295 15.39L3.34242 13.6552L0.414795 13.14" stroke="#24405D" stroke-width="0.101" stroke-miterlimit="10"/>
<path d="M3.34231 13.6553L1.69231 17.5046M3.36931 10.3208L0.414307 13.14" stroke="#24405D" stroke-width="0.101" stroke-miterlimit="10"/>
<path d="M3.34242 13.6552L0.414795 10.89M3.36979 10.3207L0.84867 8.64" stroke="#24405D" stroke-width="0.101" stroke-miterlimit="10"/>
<path d="M0.414307 10.89L3.36931 10.3208L1.68856 6.52576" stroke="#24405D" stroke-width="0.101" stroke-miterlimit="10"/>
<path d="M4.12501 6.7155L1.68526 6.52575M4.12501 6.7155L0.848633 8.64M4.12501 6.7155L2.96251 4.71M4.12501 6.7155L4.55888 3.0555" stroke="#24405D" stroke-width="0.101" stroke-miterlimit="10"/>
<path d="M6.6494 4.032L2.9624 4.71" stroke="#24405D" stroke-width="0.101" stroke-miterlimit="10"/>
<path d="M7.44824 13.4381L7.46812 10.5881L10.32 10.608L10.3001 13.458L7.44824 13.4381ZM10.5337 10.2986L10.5536 7.44862L13.4055 7.4685L13.3856 10.3185L10.5337 10.2986ZM10.533 16.5499L10.5529 13.6999L13.4047 13.7197L13.3849 16.5697L10.533 16.5499ZM13.6455 13.4111L13.6654 10.5611L16.5172 10.581L16.4974 13.431L13.6455 13.4111Z" fill="#256EA5"/>
<path d="M13.4813 7.02899L13.4952 5.05012L15.4827 5.06399L15.4688 7.04287L13.4813 7.02899ZM8.51255 7.02862L8.52643 5.04974L10.5139 5.06362L10.5001 7.04249L8.51255 7.02862ZM5.07305 10.5536L5.08693 8.57474L7.07443 8.58862L7.06055 10.5675L5.07305 10.5536ZM5.0708 15.525L5.09143 13.5461L7.07818 13.5667L7.05755 15.5456L5.0708 15.525ZM16.9201 15.4875L16.9339 13.5086L18.9214 13.5225L18.9076 15.5014L16.9201 15.4875ZM16.9602 10.5675L16.9808 8.58862L18.9676 8.60924L18.9469 10.5881L16.9602 10.5675Z" fill="#3378BC"/>
<path d="M3.46238 7.36124L3.47138 6.05999L4.77 6.06899L4.761 7.37024L3.46238 7.36124ZM6.00113 4.71299L6.01013 3.41174L7.30875 3.42074L7.29975 4.72199L6.00113 4.71299ZM9.49613 3.40312L9.50513 2.10187L10.8038 2.11087L10.7948 3.41212L9.49613 3.40312ZM2.69775 10.965L2.70675 9.66374L3.99675 9.67274L3.98775 10.974L2.69775 10.965ZM19.1951 6.07799L20.4964 6.06899L20.5054 7.36762L19.2041 7.37662L19.1951 6.07799ZM16.6553 3.38549L17.9565 3.37649L17.9655 4.67512L16.6643 4.68412L16.6553 3.38549ZM13.149 2.10824L14.4503 2.09924L14.4593 3.39787L13.158 3.40687L13.149 2.10824ZM19.9515 9.67799L21.2528 9.66899L21.2618 10.9676L19.9605 10.9766L19.9515 9.67799Z" fill="#169BD6"/>
<path d="M8.48511 18.9L8.49898 16.9211L10.4865 16.935L10.4726 18.9139L8.48511 18.9ZM13.4539 18.9L13.4677 16.9211L15.4552 16.935L15.4414 18.9139L13.4539 18.9Z" fill="#3378BC"/>
<path d="M19.1865 17.8987L19.1955 16.5975L20.4941 16.6065L20.4851 17.9077L19.1865 17.8987ZM16.6748 20.574L16.6838 19.2727L17.9824 19.2817L17.9734 20.583L16.6748 20.574ZM13.1798 21.8565L13.1888 20.5552L14.4874 20.5642L14.4784 21.8655L13.1798 21.8565ZM19.9508 14.295L19.9598 12.9937L21.2584 13.0027L21.2494 14.304L19.9508 14.295ZM3.46502 16.5975L4.76627 16.5885L4.77527 17.8871L3.47402 17.8961L3.46502 16.5975ZM6.00452 19.263L7.30577 19.254L7.31477 20.5526L6.01352 20.5616L6.00452 19.263ZM9.48302 20.5399L10.7843 20.5309L10.7933 21.8295L9.49202 21.8385L9.48302 20.5399ZM2.70752 12.9975L4.00877 12.9885L4.01777 14.2871L2.71652 14.2961L2.70752 12.9975Z" fill="#169BD6"/>
<path d="M21.9165 6.87449L21.9214 6.16949L22.6399 6.17437L22.635 6.87937L21.9165 6.87449Z" fill="#00A8DA"/>
<path d="M22.8442 9.00375L22.8491 8.29875L23.5676 8.30363L23.5627 9.00863L22.8442 9.00375Z" fill="#00A8DA"/>
<path d="M20.6611 4.99049L20.666 4.28549L21.3845 4.29037L21.3796 4.99537L20.6611 4.99049Z" fill="#00A8DA"/>
<path d="M4.19995 3.37988L4.20483 2.67488L4.92333 2.67976L4.91845 3.38476L4.19995 3.37988Z" fill="#00A8DA"/>
<path d="M0.0776367 11.2414L0.0825119 10.5364L0.801012 10.5413L0.796137 11.2463L0.0776367 11.2414Z" fill="#00A8DA"/>
<path d="M19.0779 3.38025L19.0828 2.67525L19.8013 2.68012L19.7964 3.38512L19.0779 3.38025Z" fill="#00A8DA"/>
<path d="M0.487549 9.003L0.492424 8.298L1.21092 8.30288L1.20605 9.00788L0.487549 9.003Z" fill="#00A8DA"/>
<path d="M8.2395 1.19626L8.24438 0.491257L8.96288 0.496132L8.958 1.20113L8.2395 1.19626Z" fill="#00A8DA"/>
<path d="M1.3606 6.87375L1.36547 6.16875L2.08397 6.17362L2.0791 6.87862L1.3606 6.87375Z" fill="#00A8DA"/>
<path d="M2.6438 4.9635L2.64867 4.2585L3.36717 4.26337L3.3623 4.96837L2.6438 4.9635Z" fill="#00A8DA"/>
<path d="M6.12378 1.39875L6.82878 1.39387L6.83365 2.11237L6.12865 2.11725L6.12378 1.39875ZM10.4783 0.0127485L11.1833 0.00787354L11.1882 0.726374L10.4832 0.731249L10.4783 0.0127485Z" fill="#00A8DA"/>
<path d="M17.1665 2.12437L17.1714 1.41937L17.8899 1.42425L17.885 2.12925L17.1665 2.12437Z" fill="#00A8DA"/>
<path d="M23.1997 11.2148L23.2046 10.5098L23.9231 10.5146L23.9182 11.2196L23.1997 11.2148Z" fill="#00A8DA"/>
<path d="M12.7715 0.705L12.7764 0L13.4949 0.004875L13.49 0.709875L12.7715 0.705Z" fill="#00A8DA"/>
<path d="M15.0103 1.16888L15.0151 0.463882L15.7336 0.468757L15.7288 1.17376L15.0103 1.16888Z" fill="#00A8DA"/>
<path d="M19.0769 21.3424L19.0818 20.6374L19.8003 20.6423L19.7954 21.3473L19.0769 21.3424Z" fill="#00A8DA"/>
<path d="M23.1997 13.4805L23.2046 12.7755L23.9231 12.7804L23.9182 13.4854L23.1997 13.4805Z" fill="#00A8DA"/>
<path d="M4.19922 21.342L4.20409 20.637L4.92259 20.6419L4.91772 21.3469L4.19922 21.342Z" fill="#00A8DA"/>
<path d="M22.8442 15.75L22.8491 15.045L23.5676 15.0499L23.5627 15.7549L22.8442 15.75Z" fill="#00A8DA"/>
<path d="M15.0093 23.5538L15.0142 22.8488L15.7327 22.8536L15.7278 23.5586L15.0093 23.5538Z" fill="#00A8DA"/>
<path d="M21.916 17.8755L21.9209 17.1705L22.6394 17.1754L22.6345 17.8804L21.916 17.8755Z" fill="#00A8DA"/>
<path d="M20.6606 19.7865L20.6655 19.0815L21.384 19.0864L21.3791 19.7914L20.6606 19.7865Z" fill="#00A8DA"/>
<path d="M17.1376 21.9502L17.8426 21.9454L17.8475 22.6639L17.1425 22.6687L17.1376 21.9502ZM12.8093 23.2815L13.5143 23.2766L13.5192 23.9951L12.8142 24L12.8093 23.2815Z" fill="#00A8DA"/>
<path d="M6.1377 22.68L6.14257 21.975L6.86107 21.9799L6.8562 22.6849L6.1377 22.68Z" fill="#00A8DA"/>
<path d="M1.33325 17.8478L1.33813 17.1428L2.05663 17.1476L2.05175 17.8526L1.33325 17.8478Z" fill="#00A8DA"/>
<path d="M0.486816 15.7462L0.491692 15.0412L1.21019 15.0461L1.20532 15.7511L0.486816 15.7462Z" fill="#00A8DA"/>
<path d="M2.61572 19.7857L2.6206 19.0807L3.3391 19.0856L3.33422 19.7906L2.61572 19.7857Z" fill="#00A8DA"/>
<path d="M0.0776367 13.4801L0.0825119 12.7751L0.801012 12.78L0.796137 13.485L0.0776367 13.4801Z" fill="#00A8DA"/>
<path d="M10.5054 23.9902L10.5102 23.2852L11.2287 23.2901L11.2239 23.9951L10.5054 23.9902Z" fill="#00A8DA"/>
<path d="M8.2124 23.526L8.21728 22.821L8.93578 22.8259L8.9309 23.5309L8.2124 23.526Z" fill="#00A8DA"/>
</g>
<defs>
<clipPath id="clip0_1001_506">
<rect width="24" height="24" fill="white"/>
</clipPath>
</defs>
</svg>
