<svg width="24" height="24" viewBox="0 0 24 24" fill="none" xmlns="http://www.w3.org/2000/svg">
<g clip-path="url(#clip0_1016_209)">
<path fill-rule="evenodd" clip-rule="evenodd" d="M13.2733 0.708405L13.6719 2.10463L14.2776 2.10044L15.0384 1.16907L15.0103 1.16888L15.0151 0.463882L15.7336 0.468757L15.7288 1.17376L15.6388 1.17315L16.174 2.06101L17.1688 1.7903L17.1714 1.41937L17.8899 1.42425L17.885 2.12925L17.5127 2.12672L17.4082 3.38029L17.9565 3.37649L17.9583 3.64299L19.08 3.0739L19.0828 2.67525L19.8013 2.68012L19.7964 3.38512L19.5424 3.3834L19.6457 4.33998L20.6646 4.49616L20.666 4.28549L21.3845 4.29037L21.3796 4.99537L20.8592 4.99184L20.2645 6.0706L20.4964 6.06899L20.5002 6.61439L21.9191 6.50403L21.9214 6.16949L22.6399 6.17437L22.635 6.87937L22.1953 6.87639L21.8116 7.77186L22.8487 8.3615L22.8491 8.29875L23.5676 8.30363L23.5627 9.00863L22.8442 9.00375L22.8449 8.90463L21.2549 9.98166L21.2577 10.3891L23.2027 10.7818L23.2046 10.5098L23.9231 10.5146L23.9182 11.2196L23.2216 11.2149L22.439 11.9754L23.2626 12.7759L23.9231 12.7804L23.9182 13.4854L23.1997 13.4805L23.2012 13.2581L21.2542 13.6154L21.2512 14.0491L22.8486 15.1141L22.8491 15.045L23.5676 15.0499L23.5627 15.7549L22.8442 15.75L22.8454 15.584L21.764 16.2008L22.1864 17.1723L22.6394 17.1754L22.6345 17.8804L21.916 17.8755L21.9187 17.4931L20.489 17.3487L20.4851 17.9077L20.2704 17.9063L20.8972 19.0831L21.384 19.0864L21.3791 19.7914L20.6606 19.7865L20.6628 19.4739L19.6282 19.626L19.5106 20.6403L19.8003 20.6423L19.7954 21.3473L19.0769 21.3424L19.0802 20.8623L17.9753 20.3096L17.9734 20.583L17.3995 20.579L17.4938 21.9478L17.8426 21.9454L17.8475 22.6639L17.1425 22.6687L17.1394 22.226L16.1656 21.9353L15.6217 22.8529L15.7327 22.8536L15.7278 23.5586L15.0093 23.5538L15.0142 22.8488L15.0644 22.8491L14.2993 21.8643L13.6936 21.8601L13.2794 23.2782L13.5143 23.2766L13.5192 23.9951L12.8142 24L12.8104 23.435L11.9739 22.7498L11.2283 23.349L11.2239 23.9951L10.5054 23.9902L10.5102 23.2852L10.6539 23.2862L10.2664 21.8331L9.70346 21.837L8.93146 22.8258L8.93578 22.8259L8.9309 23.5309L8.2124 23.526L8.21728 22.821L8.33323 22.8218L7.81623 21.9601L6.85916 22.2557L6.8562 22.6849L6.1377 22.68L6.14257 21.975L6.43676 21.977L6.54836 20.5579L6.01352 20.5616L6.01189 20.3261L4.92062 20.9277L4.91772 21.3469L4.19922 21.342L4.20409 20.637L4.43339 20.6385L4.32787 19.6463L3.33617 19.5089L3.33422 19.7906L2.61572 19.7857L2.6206 19.0807L3.04981 19.0837L3.71326 17.8945L3.47402 17.8961L3.47042 17.3766L2.05406 17.5181L2.05175 17.8526L1.33325 17.8478L1.33813 17.1428L1.7911 17.1458L2.18125 16.2356L1.20572 15.6922L1.20532 15.7511L0.486816 15.7462L0.491692 15.0412L1.18734 15.046L2.71459 14.0171L2.71166 13.5956L0.797702 13.2587L0.796137 13.485L0.0776367 13.4801L0.0825119 12.7751L0.719006 12.7795L1.52613 12.0094L0.71761 11.2457L0.0776367 11.2414L0.0825119 10.5364L0.801012 10.5413L0.799469 10.7644L2.70168 10.3979L2.70485 9.93832L1.20652 8.93943L1.20605 9.00788L0.487549 9.003L0.492424 8.298L1.21092 8.30288L1.21047 8.36887L2.19383 7.79126L1.78876 6.87665L1.3606 6.87375L1.36547 6.16875L2.08397 6.17362L2.08167 6.50594L3.46755 6.61372L3.47138 6.05999L3.68748 6.06149L3.05263 4.96627L2.6438 4.9635L2.64867 4.2585L3.36717 4.26337L3.36495 4.5846L4.34814 4.4038L4.4693 3.38171L4.19995 3.37988L4.20483 2.67488L4.92333 2.67976L4.91995 3.16777L6.0083 3.67655L6.01013 3.41174L6.55492 3.41552L6.46239 2.11494L6.12865 2.11725L6.12378 1.39875L6.82878 1.39387L6.83151 1.79694L7.77922 2.05664L8.29673 1.19664L8.2395 1.19626L8.24438 0.491257L8.96288 0.496132L8.958 1.20113L8.94003 1.20101L9.67703 2.10306L10.2776 2.10722L10.6656 0.729987L10.4832 0.731249L10.4783 0.0127485L11.1833 0.00787354L11.1879 0.686166L11.9351 1.25927L12.7723 0.589712L12.7764 0L13.4949 0.004875L13.49 0.709875L13.2733 0.708405ZM12.7897 0.705123L12.0177 1.32258L13.1496 2.19069L13.149 2.10824L13.5671 2.10535L13.1681 0.707691L12.7897 0.705123ZM8.804 22.825L8.45149 22.8226L7.9156 21.9294L9.48928 21.4434L9.49202 21.8385L9.57463 21.8379L8.804 22.825ZM11.8941 22.6844L11.1411 23.2895L10.7586 23.2869L10.3708 21.8324L10.7933 21.8295L10.7929 21.7823L11.8941 22.6844ZM0.79841 13.1563L0.800588 12.8412L1.59966 12.0788L2.70841 13.1261L2.71095 13.4929L0.79841 13.1563ZM4.31686 19.5429L3.33687 19.4071L3.3391 19.0856L3.16503 19.0844L3.82936 17.8937L4.14124 17.8915L4.31686 19.5429ZM1.20652 15.577L1.20945 15.1528L2.71543 14.1383L2.71652 14.2961L3.01349 14.2941L2.22125 16.1423L1.20652 15.577ZM3.46972 17.2752L2.05477 17.4166L2.05663 17.1476L1.90067 17.1466L2.26996 16.2851L3.46748 16.9522L3.46972 17.2752ZM6.8599 22.1498L6.86107 21.9799L6.53802 21.9777L6.64973 20.5572L6.97316 20.555L7.76272 21.8709L6.8599 22.1498ZM17.2982 20.5783L17.3926 21.9485L17.1376 21.9502L17.1387 22.1204L16.2187 21.8457L16.9713 20.576L17.2982 20.5783ZM13.5886 21.8593L13.174 23.279L12.8093 23.2815L12.8095 23.3037L12.0544 22.6851L13.1803 21.7804L13.1798 21.8565L13.5886 21.8593ZM20.7824 19.0823L20.6655 19.0815L20.6635 19.3717L19.6403 19.5222L19.8281 17.9032L20.1556 17.9055L20.7824 19.0823ZM21.6757 16.2511L22.0759 17.1716L21.9209 17.1705L21.9194 17.3917L20.4897 17.2473L20.4919 16.9262L21.6757 16.2511ZM15.5048 22.8521L15.193 22.85L14.4279 21.8651L14.4784 21.8655L14.4814 21.4325L16.0659 21.9055L15.5048 22.8521ZM21.2503 14.17L22.8478 15.2349L22.8462 15.4673L21.7234 16.1076L20.9383 14.3018L21.2494 14.304L21.2503 14.17ZM4.92142 20.8119L4.92259 20.6419L4.53503 20.6392L4.43096 19.6606L6.00879 19.8792L6.01109 20.2112L4.92142 20.8119ZM22.3665 12.0458L23.204 12.8597L23.202 13.1553L21.2549 13.5125L21.2576 13.1233L22.3665 12.0458ZM19.409 20.6396L19.0818 20.6374L19.081 20.7497L17.9761 20.1971L17.9783 19.8687L19.5248 19.6413L19.409 20.6396ZM14.4088 2.09953L15.1681 1.16995L15.5203 1.17234L16.0727 2.08858L14.4532 2.52929L14.4503 2.09924L14.4088 2.09953ZM21.2585 10.4922L23.202 10.8847L23.2005 11.0946L22.3665 11.9049L21.2608 10.8302L21.2585 10.4922ZM17.1681 1.89518L17.1665 2.12437L17.4114 2.12603L17.3068 3.38099L16.9712 3.38331L16.2282 2.15093L17.1681 1.89518ZM6.83365 2.11237L6.56359 2.11424L6.65622 3.41622L6.95982 3.41832L7.72512 2.14654L6.83223 1.90186L6.83365 2.11237ZM10.3823 2.10795L10.7708 0.72926L11.0754 0.727153L11.8539 1.32424L10.8034 2.16444L10.8038 2.11087L10.3823 2.10795ZM3.16983 4.96707L3.80469 6.0623L4.15125 6.0647L4.33569 4.50878L3.36424 4.68742L3.3623 4.96837L3.16983 4.96707ZM2.0791 6.87862L1.89956 6.8774L2.28148 7.73977L3.46457 7.04484L3.46685 6.71497L2.08097 6.60719L2.0791 6.87862ZM8.80888 1.20012L8.41413 1.19744L7.88041 2.08437L9.50218 2.52879L9.50513 2.10187L9.54586 2.10215L8.80888 1.20012ZM1.20965 8.48648L1.20736 8.8186L2.70569 9.81749L2.70675 9.66374L3.0241 9.66596L2.23499 7.88421L1.20965 8.48648ZM19.0792 3.18756L17.9591 3.75585L17.9614 4.0818L19.5424 4.32414L19.4407 3.38271L19.0779 3.38025L19.0792 3.18756ZM0.798757 10.8674L0.796585 11.1814L1.59931 11.9396L2.69826 10.8911L2.70096 10.5009L0.798757 10.8674ZM4.57093 3.3824L4.45211 4.38468L6.00538 4.09905L6.00753 3.78769L4.91918 3.2789L4.91845 3.38476L4.57093 3.3824ZM20.6611 4.99049L20.6638 4.59823L19.6569 4.44388L19.8328 6.07358L20.1488 6.0714L20.7443 4.99106L20.6611 4.99049ZM22.8479 8.47722L21.7715 7.86528L20.9978 9.67076L21.2528 9.66899L21.2541 9.86024L22.8458 8.78206L22.8479 8.47722ZM21.9165 6.87449L21.9184 6.60539L20.5009 6.71564L20.503 7.0279L21.7232 7.72162L22.0858 6.87564L21.9165 6.87449ZM21.2369 13.0026L22.2941 11.9753L21.2573 10.9676L20.3199 10.9741L19.62 12.0584L20.2367 12.9957L21.2369 13.0026ZM20.0803 12.9946L19.5429 12.1778L18.676 13.5208L18.9214 13.5225L18.9167 14.1894L19.9539 13.8368L19.9598 12.9937L20.0803 12.9946ZM19.953 13.9744L18.9158 14.3271L18.9076 15.5014L18.6451 15.4995L19.4615 16.5993L20.4941 16.6065L20.4927 16.8095L21.6352 16.1579L20.8279 14.3011L19.9508 14.295L19.953 13.9744ZM19.2988 16.5982L18.4824 15.4984L17.8643 15.4941L17.6463 17.4246L19.191 17.2451L19.1955 16.5975L19.2988 16.5982ZM19.1901 17.3761L17.6313 17.5572L17.437 19.278L17.9824 19.2817L17.979 19.7666L19.5368 19.5374L19.7265 17.9025L19.1865 17.8987L19.1901 17.3761ZM17.3063 19.2771L17.4987 17.5726L15.4491 17.8108L15.4444 18.4789L16.683 19.384L16.6838 19.2727L17.3063 19.2771ZM16.6819 19.5442L15.4433 18.6391L15.4414 18.9139L14.3464 18.9062L14.0251 20.561L14.4874 20.5642L14.4821 21.3273L16.119 21.8159L16.8544 20.5752L16.6748 20.574L16.6819 19.5442ZM13.8929 20.5601L14.2142 18.9053L13.4539 18.9L13.4551 18.7293L12.0978 19.7714L13.1884 20.6079L13.1888 20.5552L13.8929 20.5601ZM13.1873 20.7709L11.991 19.8533L10.786 20.7785L10.792 21.651L11.9745 22.6197L13.1812 21.6501L13.1873 20.7709ZM10.7849 20.6155L11.8843 19.7714L10.4742 18.6898L10.4726 18.9139L9.76713 18.909L10.0843 20.5357L10.7843 20.5309L10.7849 20.6155ZM9.95198 20.5366L9.6345 18.908L8.48511 18.9L8.48672 18.6699L7.30763 19.5223L7.31477 20.5526L7.09045 20.5542L7.86209 21.8402L9.48855 21.3379L9.48302 20.5399L9.95198 20.5366ZM7.30652 19.3627L8.48785 18.5087L8.49274 17.8111L6.46996 17.5864L6.64553 19.2586L7.30577 19.254L7.30652 19.3627ZM6.51491 19.2595L6.33771 17.5717L4.77188 17.3978L4.77527 17.8871L4.24274 17.8908L4.41995 19.5571L6.00808 19.7772L6.00452 19.263L6.51491 19.2595ZM4.77097 17.2669L6.32381 17.4394L6.12396 15.5359L5.42904 15.5287L4.67917 16.5891L4.76627 16.5885L4.77097 17.2669ZM4.51916 16.5902L5.27098 15.5271L5.0708 15.525L5.08401 14.258L4.01529 13.93L4.01777 14.2871L3.1237 14.2933L2.30996 16.1917L3.46667 16.8361L3.46502 16.5975L4.51916 16.5902ZM4.01435 13.7938L5.08542 14.1224L5.09143 13.5461L5.38802 13.5492L4.4538 12.1108L3.86623 12.9895L4.00877 12.9885L4.01435 13.7938ZM3.70911 12.9906L4.37674 11.9921L3.71424 10.9721L2.76664 10.9655L1.67283 12.009L2.71925 12.9974L3.70911 12.9906ZM13.1505 2.31865L11.9364 1.38755L10.8025 2.29449L10.7964 3.17054L11.9837 4.07409L13.1564 3.1742L13.1505 2.31865ZM13.1575 3.33719L12.0909 4.15569L13.494 5.2235L13.4952 5.05012L14.1951 5.05501L13.8674 3.40196L13.158 3.40687L13.1575 3.33719ZM13.9998 3.40105L14.3279 5.05593L15.4827 5.06399L15.4815 5.23491L16.6623 4.40367L16.6553 3.38549L16.8538 3.38412L16.1269 2.1785L14.454 2.63376L14.4593 3.39787L13.9998 3.40105ZM16.6634 4.56188L15.4804 5.39468L15.4754 6.10008L17.4857 6.35271L17.3042 4.67969L16.6643 4.68412L16.6634 4.56188ZM17.4348 4.67879L17.6183 6.36937L19.1985 6.56796L19.1951 6.07799L19.7313 6.07428L19.5536 4.42804L17.9621 4.18409L17.9655 4.67512L17.4348 4.67879ZM19.1994 6.6991L17.6327 6.5022L17.86 8.59775L18.4765 8.60415L19.3177 7.37583L19.2041 7.37662L19.1994 6.6991ZM19.476 7.37474L18.633 8.60577L18.9676 8.60924L18.9553 9.7842L19.9541 10.0584L19.9515 9.67799L20.8876 9.67152L21.6832 7.81504L20.5038 7.14454L20.5054 7.36762L19.476 7.37474ZM19.9551 10.1935L18.9539 9.91863L18.9469 10.5881L18.6505 10.585L19.5419 11.9397L20.1645 10.9752L19.9605 10.9766L19.9551 10.1935ZM10.0852 3.4072L10.7948 3.41212L10.7953 3.33305L11.8768 4.15611L10.513 5.20266L10.5139 5.06362L9.76039 5.05836L10.0852 3.4072ZM9.50145 2.63331L9.49613 3.40312L9.95288 3.40628L9.62808 5.05743L8.52643 5.04974L8.52474 5.29002L7.30186 4.41759L7.30875 3.42074L7.0772 3.41914L7.82631 2.17427L9.50145 2.63331ZM6.64429 4.71745L7.29975 4.72199L7.30076 4.5765L8.52363 5.44892L8.51894 6.11737L6.47468 6.36517L6.64429 4.71745ZM6.00466 4.20188L6.00113 4.71299L6.5137 4.71655L6.34234 6.38122L4.76652 6.57224L4.77 6.06899L4.25287 6.06541L4.43967 4.48967L6.00466 4.20188ZM4.65159 7.36948L4.761 7.37024L4.76562 6.7033L6.32869 6.51382L6.11581 8.58193L5.47891 8.57748L4.65159 7.36948ZM3.46375 7.16245L3.46238 7.36124L4.49328 7.36839L5.32059 8.57638L5.08693 8.57474L5.07851 9.77478L3.99395 10.0784L3.99675 9.67274L3.13491 9.66673L2.32265 7.83272L3.46375 7.16245ZM3.86996 10.9732L3.98775 10.974L3.99301 10.2137L5.07756 9.91004L5.07305 10.5536L5.33742 10.5555L4.45538 11.8745L3.86996 10.9732ZM4.53243 11.9932L5.49308 10.5566L7.03261 10.5673L7.46562 10.9462L7.45043 13.1238L6.94576 13.5654L5.54409 13.5508L4.53243 11.9932ZM7.46802 10.6028L7.06279 10.2482L7.06748 9.57858L9.03447 9.35306L8.9092 10.5982L7.46812 10.5881L7.46802 10.6028ZM9.06111 9.0883L7.06932 9.31667L7.07443 8.58862L6.2464 8.58284L6.46103 6.49778L8.51802 6.24844L8.51255 7.02862L9.2678 7.03389L9.06111 9.0883ZM10.5118 5.36741L10.5003 7.00363L10.896 7.45101L13.048 7.46601L13.4818 6.96489L13.4928 5.386L11.984 4.23771L10.5118 5.36741ZM10.1856 7.0403L9.52893 7.03571L9.32547 9.05799L10.5434 8.91835L10.5536 7.45625L10.1856 7.0403ZM13.3898 7.46839L13.7684 7.031L14.4113 7.03549L14.5848 9.05045L13.3954 8.91408L13.4055 7.4685L13.3898 7.46839ZM14.8483 9.08067L14.6725 7.03731L15.4688 7.04287L15.4745 6.23099L17.5001 6.48554L17.7291 8.59639L16.9808 8.58862L16.9731 9.3243L14.8483 9.08067ZM16.9602 10.5675L16.9606 10.5267L16.515 10.9022L16.499 13.1992L16.9334 13.5813L16.9339 13.5086L18.522 13.5197L19.4648 12.0591L18.4938 10.5834L16.9602 10.5675ZM16.9642 10.1837L16.9704 9.58569L14.8711 9.34498L14.9765 10.5703L16.4929 10.5808L16.9642 10.1837ZM16.3678 13.4301L16.931 13.9255L16.9266 14.5538L14.8767 14.7229L14.9856 13.4205L16.3678 13.4301ZM14.8547 14.9856L16.9248 14.8148L16.9201 15.4875L17.7336 15.4932L17.5137 17.44L15.45 17.6798L15.4552 16.935L14.6921 16.9297L14.8547 14.9856ZM13.4562 18.5645L13.4677 16.9251L13.1457 16.5681L10.8487 16.5521L10.4864 16.9538L10.4753 18.5269L11.991 19.6894L13.4562 18.5645ZM13.8164 16.9236L14.4313 16.9279L14.592 15.0073L13.3951 15.106L13.3857 16.446L13.8164 16.9236ZM10.5332 16.5136L10.1553 16.9327L9.53098 16.9283L9.3279 14.9557L10.5432 15.079L10.5332 16.5136ZM9.06377 14.9288L9.26942 16.9265L8.49898 16.9211L8.49366 17.6804L6.45607 17.4541L6.25482 15.5373L7.05755 15.5456L7.06609 14.726L9.06377 14.9288ZM7.07577 13.7971L7.06881 14.465L9.03658 14.6647L8.91135 13.4483L7.48573 13.4384L7.07577 13.7971ZM13.3969 14.845L14.614 14.7446L14.7249 13.4186L13.6455 13.4111L13.6654 10.5611L14.7154 10.5684L14.6075 9.31476L13.3936 9.17558L13.3856 10.3185L10.5337 10.2986L10.5415 9.18026L9.29883 9.32274L9.17033 10.6L10.32 10.608L10.3001 13.458L9.17291 13.4501L9.30071 14.6916L10.5451 14.8179L10.5529 13.6999L13.4047 13.7197L13.3969 14.845Z" fill="white"/>
</g>
<defs>
<clipPath id="clip0_1016_209">
<rect width="24" height="24" fill="white"/>
</clipPath>
</defs>
</svg>
