<svg width="24" height="24" viewBox="0 0 24 24" fill="none" xmlns="http://www.w3.org/2000/svg">
<path d="M13.5301 0C14.8501 3.05437 8.79758 4.94063 8.23508 7.485C7.71945 9.82313 11.8313 12.54 11.8351 12.54C11.2107 11.5725 10.7513 10.7756 10.1251 9.27C9.0657 6.72375 16.577 4.41937 13.5301 0ZM17.5501 4.23C17.5501 4.23 12.2401 4.57125 11.9701 7.965C11.8501 9.47625 13.367 10.2713 13.4101 11.37C13.4457 12.2681 12.5101 13.02 12.5101 13.02C12.5101 13.02 14.2126 12.6956 14.7451 11.325C15.3357 9.80438 13.5938 8.77688 13.7701 7.56C13.9388 6.39563 17.5501 4.23 17.5501 4.23ZM9.21008 12.075C9.21008 12.075 4.35008 12.0056 4.35008 13.38C4.35008 14.8163 10.712 14.9231 15.2551 14.04C15.2551 14.04 16.4626 13.2094 16.7851 12.9C13.8076 13.5075 7.02008 13.575 7.02008 13.05C7.02008 12.5663 9.21008 12.075 9.21008 12.075ZM18.5551 12.075C18.0788 12.1125 17.5651 12.2963 17.1001 12.63C18.1951 12.3938 19.1251 13.0725 19.1251 13.845C19.1251 15.585 16.6051 17.22 16.6051 17.22C16.6051 17.22 20.5051 16.7775 20.5051 13.92C20.5051 12.6225 19.6032 11.9925 18.5551 12.075ZM8.04008 14.745C7.29383 14.745 6.18008 15.33 6.18008 15.885C6.18008 17.0006 11.7901 17.8594 15.9451 16.23L14.5051 15.345C11.6888 16.2469 6.50258 15.9525 8.04008 14.745ZM8.73008 17.25C7.7082 17.25 7.03508 17.8669 7.03508 18.33C7.03508 19.7625 13.1382 19.9069 15.5551 18.45L14.0251 17.475C12.2195 18.2381 7.68758 18.3544 8.73008 17.25ZM5.32508 18.54C3.66008 18.5063 2.58008 19.2544 2.58008 19.875C2.58008 23.175 19.6201 23.0231 19.6201 19.65C19.6201 19.0894 18.9732 18.8175 18.7351 18.69C20.1282 21.915 4.78508 21.6581 4.78508 19.755C4.78508 19.3219 5.91383 18.9075 6.96008 19.11L6.07508 18.6C5.81445 18.5606 5.5632 18.5456 5.32508 18.54ZM21.4201 20.76C18.8288 23.2163 12.2626 24.1069 5.65508 22.59C12.2607 25.2938 21.3882 23.7769 21.4201 20.76Z" fill="black"/>
</svg>
