<svg width="24" height="24" viewBox="0 0 24 24" fill="none" xmlns="http://www.w3.org/2000/svg">
<g clip-path="url(#clip0_1016_496)">
<path d="M19.7791 12.1797C19.7791 7.91871 16.1602 4.46318 11.689 4.46318C7.21784 4.46318 3.59888 7.91871 3.59888 12.1797C3.59888 16.4408 7.21784 19.8963 11.689 19.8963C16.1602 19.8846 19.7791 16.4408 19.7791 12.1797Z" fill="#F49500"/>
<path d="M12.5297 3.83277C12.5297 5.49049 11.1872 6.84468 9.51777 6.84468C7.86005 6.84468 6.50586 5.50217 6.50586 3.83277C6.50586 2.17506 7.84838 0.820862 9.51777 0.820862C11.1755 0.820862 12.5297 2.17506 12.5297 3.83277Z" fill="#FCC000"/>
<path d="M20.8883 6.3894C20.8883 8.04712 19.5458 9.40131 17.8764 9.40131C16.2187 9.40131 14.8645 8.05879 14.8645 6.3894C14.8645 4.73168 16.207 3.37749 17.8764 3.37749C19.5458 3.37749 20.8883 4.73168 20.8883 6.3894Z" fill="#FCC000"/>
<path d="M23.7602 14.3278C23.7602 15.9855 22.4176 17.3397 20.7482 17.3397C19.0905 17.3397 17.7363 15.9972 17.7363 14.3278C17.7363 12.67 19.0788 11.3159 20.7482 11.3159C22.4176 11.3275 23.7602 12.67 23.7602 14.3278Z" fill="#FCC000"/>
<path d="M17.3861 20.1415C17.3861 21.7992 16.0436 23.1534 14.3742 23.1534C12.7165 23.1534 11.3623 21.8109 11.3623 20.1415C11.3623 18.4837 12.7048 17.1295 14.3742 17.1295C16.0319 17.1295 17.3861 18.4721 17.3861 20.1415Z" fill="#FCC000"/>
<path d="M8.67715 18.0518C8.67715 19.7095 7.33463 21.0637 5.66523 21.0637C4.00751 21.0637 2.65332 19.7212 2.65332 18.0518C2.65332 16.3941 3.99584 15.0399 5.66523 15.0399C7.32295 15.0399 8.67715 16.3941 8.67715 18.0518Z" fill="#FCC000"/>
<path d="M6.24892 9.84492C6.24892 11.5026 4.9064 12.8568 3.23701 12.8568C1.57929 12.8568 0.225098 11.5143 0.225098 9.84492C0.225098 8.1872 1.56762 6.83301 3.23701 6.83301C4.89473 6.83301 6.24892 8.1872 6.24892 9.84492Z" fill="#FCC000"/>
<path d="M12.296 10.417L12.0742 9.64647L11.6072 10.5337L9.93783 4.7667L10.7784 5.25701L10.5682 4.52155L9.40082 3.87947L8.74707 5.04688L8.96888 5.78234L9.41249 4.91846L11.0936 10.6855L10.2297 10.1835L10.4515 10.954L11.6306 11.5844L12.296 10.417Z" fill="#03A239"/>
<path d="M13.7438 11.8295L14.2574 11.3509L13.3235 11.2808L17.246 7.6502V8.56078L17.7363 8.1055L17.713 6.83302L16.4522 6.71628L15.9619 7.18324L16.8724 7.24161L12.9499 10.8839L12.9616 9.93832L12.4363 10.4286L12.4713 11.7011L13.7438 11.8295Z" fill="#03A239"/>
<path d="M7.25287 18.0518L7.77821 17.5265L6.82093 17.5031L10.7551 13.6273L10.7668 14.5613L11.2688 14.0709L11.2337 12.7751L9.93791 12.7168L9.4476 13.2071L10.3699 13.2304L6.43569 17.1179L6.42402 16.1606L5.89868 16.6743L5.95705 17.9701L7.25287 18.0518Z" fill="#03A239"/>
<path d="M10.3582 10.9073L9.61109 10.6738L10.0897 11.5377L4.45115 9.80991L5.30336 9.36629L4.59124 9.14449L3.42383 9.77489L4.04255 10.954L4.75467 11.1758L4.29938 10.3352L9.92629 12.063L9.05073 12.5066L9.79788 12.7401L10.9653 12.098L10.3582 10.9073Z" fill="#03A239"/>
<path d="M14.9346 18.6939L14.7011 18.0051L14.2575 18.8456L12.5414 13.6857L13.3819 14.0709L13.1601 13.4172L11.981 12.9035L11.3623 14.0126L11.5841 14.6663L12.0161 13.8608L13.7438 19.0208L12.8799 18.6122L13.1134 19.3009L14.2925 19.8146L14.9346 18.6939Z" fill="#03A239"/>
<path d="M19.102 13.2888L18.4016 13.0786L18.8335 13.9309L13.6035 12.4132L14.3974 11.9463L13.7436 11.7595L12.6462 12.4249L13.2183 13.569L13.872 13.7674L13.4518 12.9386L18.6817 14.4445L17.8646 14.9232L18.565 15.1333L19.6507 14.4445L19.102 13.2888Z" fill="#03A239"/>
</g>
<defs>
<clipPath id="clip0_1016_496">
<rect width="24" height="24" fill="white"/>
</clipPath>
</defs>
</svg>
